{"title":"In Time (2011) TS NL subs DutchReleaseTeam [SciFi&amp;Thriller]","uid":6797995,"size":754142282,"categoryP":"video","categoryS":"movies","magnet":"?xt=urn:btih:424d49c3812fc1278e20552c3eeb134f03d9f918&amp;dn=In+Time+%282011%29+TS+NL+subs+DutchReleaseTeam+%5BSciFi%26amp%3BThriller%5D&amp;tr=udp%3A%2F%2Ftracker.openbittorrent.com%3A80&amp;tr=udp%3A%2F%2Fopen.demonii.com%3A1337&amp;tr=udp%3A%2F%2Ftracker.coppersurfer.tk%3A6969&amp;tr=udp%3A%2F%2Fexodus.desync.com%3A6969","seeders":1,"leechers":0,"uploader":"Koedje","files":-1,"time":1320530938,"description":" &lt;a href=&quot;http://img401.imageshack.us/img401/945/intime.jpg&quot; rel=&quot;nofollow&quot; target=&quot;_NEW&quot;&gt;http://img401.imageshack.us/img401/945/intime.jpg&lt;/a&gt;\n\n\nVerenigde Staten\nSciencefiction / Thriller\n109 minuten\n\ngeregisseerd door Andrew Niccol\nmet Amanda Seyfried, Justin Timberlake en Olivia Wilde\n\nWelkom in een wereld waar tijd het ultieme betaalmiddel is geworden. Het verouderingsproces stopt op de leeftijd van 25 jaar, maar er zit een addertje onder het gras: je bent genetisch gemanipuleerd om nog ÃƒÂ©ÃƒÂ©n jaar te leven, tenzij je je nakende dood kan afkopen. De rijken &quot;verdienen&quot; tientallen jaren per keer (en blijven 25 jaar), waardoor ze nagenoeg onsterfelijk worden, terwijl de rest genoeg uren bij elkaar smeekt, leent of steelt om de dag door te komen. Wanneer een jonge man (Timberlake) in het bezit komt van een fortuin aan tijd, wordt hij valselijk beschuldigd van moord. Hij wordt gedwongen op de vlucht te slaan met een mooie gijzelaar (Seyfried). De liefde van het duo, dat van minuut tot minuut leeft, wordt een sterk wapen in hun oorlog tegen het systeem.\n\n\n\nVertaald door Simply ReleaseS Toppers\nMarkow87\n\n\n\n\n\n\nScreenshots:\n &lt;a href=&quot;\nhttp://img804.imageshack.us/img804/5627/screenshot1wl.jpg&quot; rel=&quot;nofollow&quot; target=&quot;_NEW&quot;&gt;\nhttp://img804.imageshack.us/img804/5627/screenshot1wl.jpg&lt;/a&gt;\n &lt;a href=&quot;\nhttp://img97.imageshack.us/img97/7/screenshot2sm.jpg&quot; rel=&quot;nofollow&quot; target=&quot;_NEW&quot;&gt;\nhttp://img97.imageshack.us/img97/7/screenshot2sm.jpg&lt;/a&gt;\n &lt;a href=&quot;\nhttp://img715.imageshack.us/img715/7563/screenshot3xn.jpg&quot; rel=&quot;nofollow&quot; target=&quot;_NEW&quot;&gt;\nhttp://img715.imageshack.us/img715/7563/screenshot3xn.jpg&lt;/a&gt;\n &lt;a href=&quot;\nhttp://img542.imageshack.us/img542/5058/screenshot4t.jpg&quot; rel=&quot;nofollow&quot; target=&quot;_NEW&quot;&gt;\nhttp://img542.imageshack.us/img542/5058/screenshot4t.jpg&lt;/a&gt;\n\n\n\nINFO;\n\n\nFormat                                   : AVI\nFormat/Info                              : Audio Video Interleave\nFile size                                : 714 MiB\nDuration                                 : 1h 41mn\nOverall bit rate mode                    : Variable\nOverall bit rate                         : 981 Kbps\nWriting application                      : VirtualDubMod 1.5.4.1 (build 2178/release)\nWriting library                          : VirtualDubMod build 2178/release\n\nVideo\nID                                       : 0\nFormat                                   : MPEG-4 Visual\nFormat profile                           : Advanced Simple@L5\nFormat settings, BVOP                    : 1\nFormat settings, QPel                    : No\nFormat settings, GMC                     : No warppoints\nFormat settings, Matrix                  : Custom\nCodec ID                                 : XVID\nCodec ID/Hint                            : XviD\nDuration                                 : 1h 41mn\nBit rate                                 : 851 Kbps\nWidth                                    : 688 pixels\nHeight                                   : 288 pixels\nDisplay aspect ratio                     : 2.40:1\nFrame rate                               : 25.000 fps\nColor space                              : YUV\nChroma subsampling                       : 4:2:0\nBit depth                                : 8 bits\nScan type                                : Progressive\nCompression mode                         : Lossy\nBits/(Pixel*Frame)                       : 0.172\nStream size                              : 620 MiB (87%)\nWriting library                          : XviD 64\n\nAudio\nID                                       : 1\nFormat                                   : MPEG Audio\nFormat version                           : Version 1\nFormat profile                           : Layer 3\nMode                                     : Joint stereo\nMode extension                           : MS Stereo\nCodec ID                                 : 55\nCodec ID/Hint                            : MP3\nDuration                                 : 1h 41mn\nBit rate mode                            : Variable\nBit rate                                 : 116 Kbps\nNominal bit rate                         : 128 Kbps\nChannel(s)                               : 2 channels\nSampling rate                            : 48.0 KHz\nCompression mode                         : Lossy\nStream size                              : 84.7 MiB (12%)\nAlignment                                : Aligned on interleaves\nInterleave, duration                     : 24 ms (0.60 video frame)\nInterleave, preload duration             : 496 ms\n\n\n\n &lt;a href=&quot;\nhttp://www.imdb.com/title/tt1637688/&quot; rel=&quot;nofollow&quot; target=&quot;_NEW&quot;&gt;\nhttp://www.imdb.com/title/tt1637688/&lt;/a&gt; &lt;a href=&quot;\nhttp://www.moviemeter.nl/film/75622&quot; rel=&quot;nofollow&quot; target=&quot;_NEW&quot;&gt;\nhttp://www.moviemeter.nl/film/75622&lt;/a&gt;\n\n\n\n\nDeze film wordt u aangeboden door het DutchReleaseTeam.\nVoor de reviews van de nieuwste films, muziek, series, games etc\nga dan eens naar http://www.hetmultimediacafe.be\n\nDutchReleaseteam = Hardcoded Dutch Subs","torrent":{"xt":"urn:btih:424d49c3812fc1278e20552c3eeb134f03d9f918","amp;dn":"In+Time+%282011%29+TS+NL+subs+DutchReleaseTeam+%5BSciFi%26amp%3BThriller%5D","amp;tr":["udp%3A%2F%2Ftracker.openbittorrent.com%3A80","udp%3A%2F%2Fopen.demonii.com%3A1337","udp%3A%2F%2Ftracker.coppersurfer.tk%3A6969","udp%3A%2F%2Fexodus.desync.com%3A6969"],"infoHash":"424d49c3812fc1278e20552c3eeb134f03d9f918","infoHashBuffer":{"type":"Buffer","data":[66,77,73,195,129,47,193,39,142,32,85,44,62,235,19,79,3,217,249,24]},"announce":[],"urlList":[]}}